<svg width="32" height="32" viewBox="0 0 32 32" fill="none" xmlns="http://www.w3.org/2000/svg">
<path d="M24.5386 3.99734C23.5293 2.99201 21.7693 2.99601 20.7679 4.00401L18.3893 6.39201L15.4479 9.33334H9.33327C9.0598 9.33353 8.793 9.41781 8.56905 9.57474C8.34509 9.73168 8.1748 9.95369 8.08127 10.2107L2.74794 24.8773C2.57061 25.364 2.69194 25.9093 3.05727 26.276L5.72394 28.9427C5.90348 29.122 6.13045 29.2463 6.37821 29.3011C6.62596 29.3559 6.8842 29.3389 7.12261 29.252L21.7893 23.9187C22.0463 23.8251 22.2683 23.6549 22.4252 23.4309C22.5821 23.2069 22.6664 22.9401 22.6666 22.6667V16.552L25.6093 13.6093L25.6106 13.608L27.9999 11.212C28.5039 10.708 28.7813 10.0373 28.7799 9.32534C28.7799 8.61201 28.5013 7.94134 27.9959 7.43867L24.5386 3.99734ZM20.3906 15.0573C20.1405 15.3073 20 15.6464 19.9999 16V21.7333L7.66794 26.2173L13.8959 19.9893C13.9306 19.9907 13.9653 20 13.9999 20C14.3955 20 14.7822 19.8827 15.1111 19.6629C15.44 19.4432 15.6963 19.1308 15.8477 18.7654C15.9991 18.3999 16.0387 17.9978 15.9615 17.6098C15.8843 17.2219 15.6939 16.8655 15.4142 16.5858C15.1345 16.3061 14.7781 16.1156 14.3901 16.0384C14.0022 15.9613 13.6 16.0009 13.2346 16.1522C12.8691 16.3036 12.5568 16.56 12.337 16.8889C12.1172 17.2178 11.9999 17.6044 11.9999 18C11.9999 18.0347 12.0093 18.0693 12.0106 18.104L5.78261 24.332L10.2666 12H15.9999C16.3546 12 16.6933 11.86 16.9426 11.6093L19.3333 9.21867L22.7813 12.6667L20.3906 15.0573ZM24.6653 10.78L21.2173 7.33201L22.6559 5.88667L26.1133 9.328L24.6653 10.78Z" fill="white"/>
</svg>
