<svg width="261" height="35" viewBox="0 0 261 35" fill="none" xmlns="http://www.w3.org/2000/svg">
<path d="M256.84 13.44C255.64 13.44 254.653 13.0933 253.88 12.4C253.133 11.68 252.76 10.8 252.76 9.76C252.76 8.69334 253.133 7.8 253.88 7.08C254.653 6.36 255.64 6 256.84 6C258.013 6 258.973 6.36 259.72 7.08C260.493 7.8 260.88 8.69334 260.88 9.76C260.88 10.8 260.493 11.68 259.72 12.4C258.973 13.0933 258.013 13.44 256.84 13.44ZM260.8 22.76L256.36 34.24H252L254.32 22.76H260.8Z" fill="white"/>
<path d="M241.985 28.7738C239.932 28.7738 238.092 28.4405 236.465 27.7738C234.838 27.1071 233.532 26.1205 232.545 24.8138C231.585 23.5071 231.078 21.9338 231.025 20.0938H238.305C238.412 21.1338 238.772 21.9338 239.385 22.4938C239.998 23.0271 240.798 23.2938 241.785 23.2938C242.798 23.2938 243.598 23.0671 244.185 22.6138C244.772 22.1338 245.065 21.4805 245.065 20.6538C245.065 19.9605 244.825 19.3871 244.345 18.9338C243.892 18.4805 243.318 18.1071 242.625 17.8138C241.958 17.5205 240.998 17.1871 239.745 16.8138C237.932 16.2538 236.452 15.6938 235.305 15.1338C234.158 14.5738 233.172 13.7471 232.345 12.6538C231.518 11.5605 231.105 10.1338 231.105 8.37379C231.105 5.76046 232.052 3.72046 233.945 2.25379C235.838 0.76046 238.305 0.0137939 241.345 0.0137939C244.438 0.0137939 246.932 0.76046 248.825 2.25379C250.718 3.72046 251.732 5.77379 251.865 8.41379H244.465C244.412 7.50713 244.078 6.80046 243.465 6.29379C242.852 5.76046 242.065 5.49379 241.105 5.49379C240.278 5.49379 239.612 5.72046 239.105 6.17379C238.598 6.60046 238.345 7.22712 238.345 8.05379C238.345 8.96046 238.772 9.66713 239.625 10.1738C240.478 10.6805 241.812 11.2271 243.625 11.8138C245.438 12.4271 246.905 13.0138 248.025 13.5738C249.172 14.1338 250.158 14.9471 250.985 16.0138C251.812 17.0805 252.225 18.4538 252.225 20.1338C252.225 21.7338 251.812 23.1871 250.985 24.4938C250.185 25.8005 249.012 26.8405 247.465 27.6138C245.918 28.3871 244.092 28.7738 241.985 28.7738Z" fill="white"/>
<path d="M231.992 0.413757V5.89376H224.552V28.4938H217.712V5.89376H210.272V0.413757H231.992Z" fill="white"/>
<path d="M211.962 0.413757L204.642 28.4938H196.362L191.882 10.0138L187.242 28.4938H178.962L171.842 0.413757H179.162L183.202 20.8538L188.202 0.413757H195.722L200.522 20.8538L204.602 0.413757H211.962Z" fill="white"/>
<path d="M123.757 28.7737C121.117 28.7737 118.69 28.1604 116.477 26.9337C114.29 25.7071 112.543 24.0004 111.237 21.8137C109.957 19.6004 109.317 17.1204 109.317 14.3738C109.317 11.6271 109.957 9.16043 111.237 6.97376C112.543 4.7871 114.29 3.08043 116.477 1.85376C118.69 0.627096 121.117 0.0137608 123.757 0.0137608C124.177 0.0137608 159.091 -0.0172519 159.5 0.0138263C161.659 0.177998 163.658 0.822429 165.497 1.85385C167.71 3.08051 169.443 4.78718 170.697 6.97384C171.977 9.16051 172.617 11.6272 172.617 14.3738C172.617 17.1205 171.977 19.6005 170.697 21.8138C169.417 24.0005 167.683 25.7072 165.497 26.9338C163.658 27.9653 161.659 28.6097 159.5 28.7738C159.091 28.8049 124.177 28.7737 123.757 28.7737ZM123.757 22.5338C124.188 22.5338 159.102 22.5892 159.5 22.5338C161.168 22.3017 162.54 21.4997 163.617 20.2938C164.977 18.8005 165.657 16.8272 165.657 14.3738C165.657 11.8938 164.977 9.92051 163.617 8.45385C162.54 7.24803 161.168 6.446 159.5 6.21384C159.102 6.15849 124.188 6.21376 123.757 6.21376C121.49 6.21376 119.677 6.94709 118.317 8.41376C116.983 9.88043 116.317 11.8671 116.317 14.3738C116.317 16.8538 116.983 18.8404 118.317 20.3337C119.677 21.8004 121.49 22.5338 123.757 22.5338Z" fill="white"/>
<path d="M95.5341 0.413757C98.4941 0.413757 101.081 1.00042 103.294 2.17376C105.507 3.34709 107.214 5.00042 108.414 7.13376C109.641 9.24043 110.254 11.6804 110.254 14.4538C110.254 17.2004 109.641 19.6404 108.414 21.7738C107.214 23.9071 105.494 25.5604 103.254 26.7338C101.041 27.9071 98.4674 28.4938 95.5341 28.4938H85.0141V0.413757H95.5341ZM95.0941 22.5738C97.6808 22.5738 99.6941 21.8671 101.134 20.4538C102.574 19.0404 103.294 17.0404 103.294 14.4538C103.294 11.8671 102.574 9.85376 101.134 8.41376C99.6941 6.97376 97.6808 6.25376 95.0941 6.25376H91.8541V22.5738H95.0941Z" fill="white"/>
<path d="M67.131 0.413757V17.2138C67.131 18.8938 67.5443 20.1871 68.371 21.0938C69.1976 22.0004 70.411 22.4538 72.011 22.4538C73.611 22.4538 74.8376 22.0004 75.691 21.0938C76.5443 20.1871 76.971 18.8938 76.971 17.2138V0.413757H83.811V17.1738C83.811 19.6804 83.2776 21.8004 82.211 23.5338C81.1443 25.2671 79.7043 26.5738 77.891 27.4538C76.1043 28.3338 74.1043 28.7738 71.891 28.7738C69.6776 28.7738 67.691 28.3471 65.931 27.4938C64.1976 26.6138 62.8243 25.3071 61.811 23.5738C60.7976 21.8138 60.291 19.6804 60.291 17.1738V0.413757H67.131Z" fill="white"/>
<path d="M49.2104 5.89376V11.5738H58.3704V16.8538H49.2104V23.0138H59.5704V28.4938H42.3704V0.413757H59.5704V5.89376H49.2104Z" fill="white"/>
<path d="M31.521 28.7738C29.4676 28.7738 27.6276 28.4405 26.001 27.7738C24.3743 27.1071 23.0676 26.1205 22.081 24.8138C21.121 23.5071 20.6143 21.9338 20.561 20.0938H27.841C27.9476 21.1338 28.3076 21.9338 28.921 22.4938C29.5343 23.0271 30.3343 23.2938 31.321 23.2938C32.3343 23.2938 33.1343 23.0671 33.721 22.6138C34.3076 22.1338 34.601 21.4805 34.601 20.6538C34.601 19.9605 34.361 19.3871 33.881 18.9338C33.4276 18.4805 32.8543 18.1071 32.161 17.8138C31.4943 17.5205 30.5343 17.1871 29.281 16.8138C27.4676 16.2538 25.9876 15.6938 24.841 15.1338C23.6943 14.5738 22.7076 13.7471 21.881 12.6538C21.0543 11.5605 20.641 10.1338 20.641 8.37379C20.641 5.76046 21.5876 3.72046 23.481 2.25379C25.3743 0.76046 27.841 0.0137939 30.881 0.0137939C33.9743 0.0137939 36.4676 0.76046 38.361 2.25379C40.2543 3.72046 41.2676 5.77379 41.401 8.41379H34.001C33.9476 7.50713 33.6143 6.80046 33.001 6.29379C32.3876 5.76046 31.601 5.49379 30.641 5.49379C29.8143 5.49379 29.1476 5.72046 28.641 6.17379C28.1343 6.60046 27.881 7.22712 27.881 8.05379C27.881 8.96046 28.3076 9.66713 29.161 10.1738C30.0143 10.6805 31.3476 11.2271 33.161 11.8138C34.9743 12.4271 36.441 13.0138 37.561 13.5738C38.7076 14.1338 39.6943 14.9471 40.521 16.0138C41.3476 17.0805 41.761 18.4538 41.761 20.1338C41.761 21.7338 41.3476 23.1871 40.521 24.4938C39.721 25.8005 38.5476 26.8405 37.001 27.6138C35.4543 28.3871 33.6276 28.7738 31.521 28.7738Z" fill="white"/>
<path d="M21.4 9.45376C21.4 11.0804 21.0267 12.5738 20.28 13.9338C19.5333 15.2671 18.3867 16.3471 16.84 17.1738C15.2933 18.0004 13.3733 18.4138 11.08 18.4138H6.84V28.4938H0V0.413757H11.08C13.32 0.413757 15.2133 0.800423 16.76 1.57376C18.3067 2.34709 19.4667 3.41376 20.24 4.77376C21.0133 6.13376 21.4 7.69376 21.4 9.45376ZM10.56 12.9738C11.8667 12.9738 12.84 12.6671 13.48 12.0538C14.12 11.4404 14.44 10.5738 14.44 9.45376C14.44 8.33376 14.12 7.46709 13.48 6.85376C12.84 6.24043 11.8667 5.93376 10.56 5.93376H6.84V12.9738H10.56Z" fill="white"/>
</svg>
